<svg id="b9010afd-9852-4c44-94fd-abe5a1902a76" data-name="Layer 1" xmlns="http://www.w3.org/2000/svg" viewBox="0 0 640 640"><title>salesforce</title><path d="M252.22,310.11H227.11c.66-4.92,3.16-13.46,13-13.46C246.54,296.65,251.52,300.29,252.22,310.11Zm130.26-13.23c-.45,0-13.45-1.69-13.45,19.06S382,335,382.48,335c12.39,0,13.45-12.9,13.45-19.06,0-20.74-13-19.06-13.45-19.06ZM150.66,319.52a8.26,8.26,0,0,0-3.14,7c0,4.56,2,5.77,3.14,6.72,4.48,3.53,14.36,2,20,.91V318C165.54,316.93,154.66,316.08,150.66,319.52ZM625,297.11c0,83.47-76.25,147.15-157.61,130-17.51,31.45-67.41,67.43-126,39.68-39.23,91.55-169.55,87.86-203.79-4.93C23.49,484.66-32.84,330,65.86,272c-33.12-75.7,21.58-165.47,109-165.47a118.4,118.4,0,0,1,93.94,46.42,107.37,107.37,0,0,1,77.35-33.18c40.35,0,75.29,22.42,94.17,55.82C528.73,136.77,625,202.45,625,297.11ZM129.8,327.42c0-11.21-11.14-14.46-17-16.37-5-2-12.78-3.35-12.78-8.52,0-9,16.2-6.35,24-2,0,0,1.12.68,1.56-.45.23-.67,2.25-6.27,2.47-6.95a1.07,1.07,0,0,0-.67-1.34c-11.75-7.27-38.79-8.11-38.79,12.1,0,11.88,11,14.72,17,16.37,4.5,1.5,12.56,2.86,12.56,8.29,0,3.81-3.37,6.73-8.74,6.73a30.24,30.24,0,0,1-18.11-6.05c-.45-.22-1.36-.68-1.57.67L87.44,337c-.45.9.22,1.13.22,1.35,1.66,1.33,9.81,6.28,21.75,6.28,12.55,0,20.39-6.73,20.39-17.26Zm30.5-40.59c-9.65,0-17.78,3-20.39,4.94a.94.94,0,0,0-.24,1.32v0l2.47,6.73a1,1,0,0,0,1.12.67c.62,0,6.48-3.81,16.14-3.81,3.81,0,6.73.67,8.75,2.25,3.43,2.66,2.91,7.9,2.91,10.08-4.56-.29-18.21-3.28-28,3.58a16.13,16.13,0,0,0-7,13.86c0,5.63,1.44,9.91,6.28,13.68,11.66,7.78,34.58,1.91,36.31,1.34,1.51-.3,3.37-.63,3.37-1.79V307.41c0-4.39.3-20.63-21.72-20.63Zm44.37-20a1.05,1.05,0,0,0-1-1.12h-9.5a1.06,1.06,0,0,0-1.12,1v75.42a1.07,1.07,0,0,0,1,1.13h9.54a1.07,1.07,0,0,0,1.13-1v-.14Zm53.14,27.58c-2-2.2-6.47-7.18-16.82-7.18-3.35,0-13.5.22-19.73,8.52C215.2,303,215,313,215,316.16c0,3,.15,13.59,6.73,20.18,2.52,2.77,8.64,7.84,21.74,7.84,10.32,0,15.7-2.24,17.71-3.58.45-.23.68-.68.23-1.79l-2.24-6.51a1.19,1.19,0,0,0-1.34-.67c-2.47.89-6.05,2.69-14.57,2.69-16.61,0-16.06-14.05-16.15-15.92h35.43a1.16,1.16,0,0,0,1.11-.9c-.27,0,2-14-5.8-23.09Zm35,50.22c12.55,0,20.41-6.73,20.41-17.26,0-11.21-11.16-14.46-17.05-16.37-3.94-1.58-12.78-3.22-12.78-8.52,0-3.58,3.14-6.05,8.07-6.05a36.32,36.32,0,0,1,15.92,4s1.13.68,1.57-.45c.22-.66,2.24-6.27,2.46-6.95a1.07,1.07,0,0,0-.66-1.34c-7.54-4.67-16-4.71-19.29-4.71-11.43,0-19.5,6.95-19.5,16.82,0,11.87,10.95,14.71,17,16.36,5.82,1.91,12.55,3.11,12.55,8.29,0,3.82-3.36,6.73-8.74,6.73a30.27,30.27,0,0,1-18.11-6,1,1,0,0,0-1.57.68L270.86,337c-.45.9.22,1.13.22,1.35,1.64,1.33,9.84,6.28,21.72,6.28Zm62.57-55.15c0-.68-.23-1.12-1.12-1.12H343c0-.14.89-8.52,4.26-11.89,4-4,11.21-1.56,11.44-1.56,1.11.45,1.34,0,1.56-.45l2.7-7.41c.66-.89,0-1.11-.23-1.34-4.85-1.91-16.54-2.74-23.32,4-5.22,5.22-6.67,13.27-7.62,18.61h-8.07a1.22,1.22,0,0,0-1.12,1.12l-1.35,7.4c0,.66.23,1.11,1.12,1.11h7.85c-8.11,45.66-8.34,47.86-9.87,52.92-1,3.45-3.13,6.58-5.6,7.4-.09,0-3.7,1.6-9.19-.23,0,0-.9-.45-1.34.67-.23.68-2.47,6.5-2.7,7.18s0,1.35.45,1.35c4.87,1.9,12.39,1.68,17,0,6-2.18,9.26-7.52,11-12.34,2.62-7.35,2.68-9.33,11.21-56.94h11.65a1.23,1.23,0,0,0,1.13-1.12Zm50.89,15.25c-.53-1.6-4.86-17.26-24-17.26-14.54,0-21.92,9.53-24,17.26-1,2.86-3,13.34,0,22.42.08.28,4.2,17.27,24,17.27,14.25,0,21.83-9.16,24-17.27,3.06-9.16,1-19.56,0-22.42Zm43.27-15.92c-4.76-1.57-15.84-1.81-21.07,5.16v-4.26a1.08,1.08,0,0,0-1-1.12h-9.09a1.07,1.07,0,0,0-1.12,1V342.4a1.06,1.06,0,0,0,1,1.12h9.3a1.07,1.07,0,0,0,1.13-1V315.93c0-2.77,0-10.84,4.25-14.34,4.67-4.67,11.43-3.21,12.78-2.92a1.49,1.49,0,0,0,1.34-.9,71.62,71.62,0,0,0,2.92-7.62,1.12,1.12,0,0,0-.45-1.35Zm44.62,51.57-2-6.95c-.45-1.12-1.35-.68-1.35-.68-4,1.74-9.67,1.8-10.76,1.8-4.42,0-16.36-1.07-16.36-18.83,0-5.94,1.76-18.83,15.69-18.83a32.93,32.93,0,0,1,11,1.57s.9.45,1.13-.68c.89-2.47,1.56-4.26,2.47-7.17.22-.9-.45-1.12-.68-1.12-11.05-3.69-21.29-2.41-26.46,0-1.51.71-15.47,6.19-15.47,26.23,0,2.76-.55,28.7,27.59,28.7a42.23,42.23,0,0,0,14.79-2.7,1.24,1.24,0,0,0,.45-1.35Zm51.34-37.67c-.76-2.86-5.12-15.47-21.3-15.47-15.25,0-22.42,9.64-24.44,17.72a36.65,36.65,0,0,0-1.57,11.21c0,24.66,18,28,28.48,28,10.31,0,15.69-2.24,17.71-3.58.44-.23.67-.68.23-1.8l-2.25-6.5a1.21,1.21,0,0,0-1.35-.67c-2.47.89-6.05,2.69-14.57,2.69-16.6,0-16.06-14.05-16.14-15.92h35.42a1.2,1.2,0,0,0,1.13-.9c-.23,0,.89-6.74-1.35-14.81Zm-22.2-6c-9.84,0-12.39,8.58-13,13.46h25.14c-.84-11.36-7.27-13.47-12.14-13.47Z"/></svg>